<mxfile host="app.diagrams.net" agent="Mozilla/5.0 (Windows NT 10.0; Win64; x64) AppleWebKit/537.36 (KHTML, like Gecko) Chrome/135.0.0.0 Safari/537.36 Edg/135.0.0.0" version="26.0.10">
  <diagram name="Seite-1" id="tnOcaeXYcVn4Khgde17v">
    <mxGraphModel dx="979" dy="643" grid="1" gridSize="10" guides="1" tooltips="1" connect="1" arrows="1" fold="1" page="1" pageScale="1" pageWidth="1654" pageHeight="1169" math="0" shadow="0">
      <root>
        <mxCell id="0" />
        <mxCell id="1" parent="0" />
        <mxCell id="jQ6lX08-I3Otiu9kKLvg-1" value="" style="verticalLabelPosition=bottom;aspect=fixed;html=1;verticalAlign=top;fillColor=strokeColor;align=center;outlineConnect=0;shape=mxgraph.fluid_power.x10700;points=[[0.5,0,0],[0.5,1,0]]" vertex="1" parent="1">
          <mxGeometry x="150.51999999999998" y="180" width="18.96" height="56.04" as="geometry" />
        </mxCell>
        <mxCell id="jQ6lX08-I3Otiu9kKLvg-2" value="" style="verticalLabelPosition=bottom;aspect=fixed;html=1;verticalAlign=top;fillColor=strokeColor;align=center;outlineConnect=0;shape=mxgraph.fluid_power.x12370;points=[[0,0.5,0],[1,0.5,0]];rotation=-90;" vertex="1" parent="1">
          <mxGeometry x="103.20999999999998" y="382.86" width="112.54" height="37.14" as="geometry" />
        </mxCell>
        <mxCell id="jQ6lX08-I3Otiu9kKLvg-3" value="" style="verticalLabelPosition=bottom;aspect=fixed;html=1;verticalAlign=top;fillColor=strokeColor;align=center;outlineConnect=0;shape=mxgraph.fluid_power.x12370;points=[[0,0.5,0],[1,0.5,0]];rotation=-90;" vertex="1" parent="1">
          <mxGeometry x="220.00000000000003" y="384" width="113" height="37.29" as="geometry" />
        </mxCell>
        <mxCell id="jQ6lX08-I3Otiu9kKLvg-54" style="edgeStyle=orthogonalEdgeStyle;rounded=0;orthogonalLoop=1;jettySize=auto;html=1;endArrow=none;startFill=0;" edge="1" parent="1" source="jQ6lX08-I3Otiu9kKLvg-7" target="jQ6lX08-I3Otiu9kKLvg-39">
          <mxGeometry relative="1" as="geometry" />
        </mxCell>
        <mxCell id="jQ6lX08-I3Otiu9kKLvg-7" value="" style="verticalLabelPosition=bottom;align=center;html=1;verticalAlign=top;pointerEvents=1;dashed=0;shape=mxgraph.pid2valves.valve;valveType=gate;rotation=-90;" vertex="1" parent="1">
          <mxGeometry x="490" y="370" width="30" height="20" as="geometry" />
        </mxCell>
        <mxCell id="jQ6lX08-I3Otiu9kKLvg-51" style="edgeStyle=orthogonalEdgeStyle;rounded=0;orthogonalLoop=1;jettySize=auto;html=1;entryX=1;entryY=0.5;entryDx=0;entryDy=0;entryPerimeter=0;endArrow=none;startFill=0;" edge="1" parent="1" source="jQ6lX08-I3Otiu9kKLvg-8" target="jQ6lX08-I3Otiu9kKLvg-3">
          <mxGeometry relative="1" as="geometry">
            <mxPoint x="280" y="320" as="targetPoint" />
            <Array as="points">
              <mxPoint x="625" y="450" />
              <mxPoint x="320" y="450" />
              <mxPoint x="320" y="340" />
              <mxPoint x="277" y="340" />
            </Array>
          </mxGeometry>
        </mxCell>
        <mxCell id="jQ6lX08-I3Otiu9kKLvg-8" value="" style="verticalLabelPosition=bottom;align=center;html=1;verticalAlign=top;pointerEvents=1;dashed=0;shape=mxgraph.pid2valves.valve;valveType=gate;rotation=-90;" vertex="1" parent="1">
          <mxGeometry x="610" y="370" width="30" height="20" as="geometry" />
        </mxCell>
        <mxCell id="jQ6lX08-I3Otiu9kKLvg-41" style="edgeStyle=orthogonalEdgeStyle;rounded=0;orthogonalLoop=1;jettySize=auto;html=1;endArrow=none;startFill=0;" edge="1" parent="1" source="jQ6lX08-I3Otiu9kKLvg-9" target="jQ6lX08-I3Otiu9kKLvg-40">
          <mxGeometry relative="1" as="geometry" />
        </mxCell>
        <mxCell id="jQ6lX08-I3Otiu9kKLvg-53" style="edgeStyle=orthogonalEdgeStyle;rounded=0;orthogonalLoop=1;jettySize=auto;html=1;endArrow=none;startFill=0;" edge="1" parent="1" source="jQ6lX08-I3Otiu9kKLvg-9">
          <mxGeometry relative="1" as="geometry">
            <mxPoint x="505" y="320" as="targetPoint" />
          </mxGeometry>
        </mxCell>
        <mxCell id="jQ6lX08-I3Otiu9kKLvg-9" value="" style="verticalLabelPosition=bottom;align=center;html=1;verticalAlign=top;pointerEvents=1;dashed=0;shape=mxgraph.pid2valves.valve;valveType=gate;rotation=-90;" vertex="1" parent="1">
          <mxGeometry x="490" y="246.07000000000002" width="30" height="20" as="geometry" />
        </mxCell>
        <mxCell id="jQ6lX08-I3Otiu9kKLvg-34" style="edgeStyle=orthogonalEdgeStyle;rounded=0;orthogonalLoop=1;jettySize=auto;html=1;endArrow=none;startFill=0;" edge="1" parent="1" source="jQ6lX08-I3Otiu9kKLvg-10" target="jQ6lX08-I3Otiu9kKLvg-20">
          <mxGeometry relative="1" as="geometry" />
        </mxCell>
        <mxCell id="jQ6lX08-I3Otiu9kKLvg-10" value="" style="shape=mxgraph.pid.compressors_-_iso.compressor,_vacuum_pump;html=1;pointerEvents=1;align=center;verticalLabelPosition=bottom;verticalAlign=top;dashed=0;rotation=-90;" vertex="1" parent="1">
          <mxGeometry x="129.48000000000002" y="286.04" width="60" height="60" as="geometry" />
        </mxCell>
        <mxCell id="jQ6lX08-I3Otiu9kKLvg-13" value="" style="shape=waypoint;sketch=0;fillStyle=solid;size=6;pointerEvents=1;points=[];fillColor=none;resizable=0;rotatable=0;perimeter=centerPerimeter;snapToPoint=1;" vertex="1" parent="1">
          <mxGeometry x="266.5" y="480" width="20" height="20" as="geometry" />
        </mxCell>
        <mxCell id="jQ6lX08-I3Otiu9kKLvg-15" style="edgeStyle=orthogonalEdgeStyle;rounded=0;orthogonalLoop=1;jettySize=auto;html=1;exitX=0;exitY=0.5;exitDx=0;exitDy=0;exitPerimeter=0;entryX=0.354;entryY=0.607;entryDx=0;entryDy=0;entryPerimeter=0;endArrow=none;startFill=0;" edge="1" parent="1" source="jQ6lX08-I3Otiu9kKLvg-2" target="jQ6lX08-I3Otiu9kKLvg-13">
          <mxGeometry relative="1" as="geometry">
            <Array as="points">
              <mxPoint x="160" y="490" />
            </Array>
          </mxGeometry>
        </mxCell>
        <mxCell id="jQ6lX08-I3Otiu9kKLvg-25" style="edgeStyle=orthogonalEdgeStyle;rounded=0;orthogonalLoop=1;jettySize=auto;html=1;endArrow=none;startFill=0;" edge="1" parent="1" source="jQ6lX08-I3Otiu9kKLvg-17" target="jQ6lX08-I3Otiu9kKLvg-24">
          <mxGeometry relative="1" as="geometry" />
        </mxCell>
        <mxCell id="jQ6lX08-I3Otiu9kKLvg-17" value="" style="shape=mxgraph.pid.shaping_machines.extruder_(piston);html=1;pointerEvents=1;align=center;verticalLabelPosition=bottom;verticalAlign=top;dashed=0;rotation=90;" vertex="1" parent="1">
          <mxGeometry x="300" y="300" width="170" height="60" as="geometry" />
        </mxCell>
        <mxCell id="jQ6lX08-I3Otiu9kKLvg-18" value="" style="rounded=0;whiteSpace=wrap;html=1;" vertex="1" parent="1">
          <mxGeometry x="120" y="120" width="540" height="60" as="geometry" />
        </mxCell>
        <mxCell id="jQ6lX08-I3Otiu9kKLvg-19" value="" style="shape=waypoint;sketch=0;fillStyle=solid;size=6;pointerEvents=1;points=[];fillColor=none;resizable=0;rotatable=0;perimeter=centerPerimeter;snapToPoint=1;" vertex="1" parent="1">
          <mxGeometry x="150" y="170" width="20" height="20" as="geometry" />
        </mxCell>
        <mxCell id="jQ6lX08-I3Otiu9kKLvg-20" value="" style="shape=waypoint;sketch=0;fillStyle=solid;size=6;pointerEvents=1;points=[];fillColor=none;resizable=0;rotatable=0;perimeter=centerPerimeter;snapToPoint=1;" vertex="1" parent="1">
          <mxGeometry x="150.00000000000003" y="228.01999999999998" width="20" height="20" as="geometry" />
        </mxCell>
        <mxCell id="jQ6lX08-I3Otiu9kKLvg-21" value="" style="shape=waypoint;sketch=0;fillStyle=solid;size=6;pointerEvents=1;points=[];fillColor=none;resizable=0;rotatable=0;perimeter=centerPerimeter;snapToPoint=1;" vertex="1" parent="1">
          <mxGeometry x="615" y="310" width="20" height="20" as="geometry" />
        </mxCell>
        <mxCell id="jQ6lX08-I3Otiu9kKLvg-22" value="" style="shape=waypoint;sketch=0;fillStyle=solid;size=6;pointerEvents=1;points=[];fillColor=none;resizable=0;rotatable=0;perimeter=centerPerimeter;snapToPoint=1;" vertex="1" parent="1">
          <mxGeometry x="615" y="170" width="20" height="20" as="geometry" />
        </mxCell>
        <mxCell id="jQ6lX08-I3Otiu9kKLvg-23" value="" style="shape=waypoint;sketch=0;fillStyle=solid;size=6;pointerEvents=1;points=[];fillColor=none;resizable=0;rotatable=0;perimeter=centerPerimeter;snapToPoint=1;" vertex="1" parent="1">
          <mxGeometry x="375" y="110" width="20" height="20" as="geometry" />
        </mxCell>
        <mxCell id="jQ6lX08-I3Otiu9kKLvg-24" value="" style="shape=waypoint;sketch=0;fillStyle=solid;size=6;pointerEvents=1;points=[];fillColor=none;resizable=0;rotatable=0;perimeter=centerPerimeter;snapToPoint=1;" vertex="1" parent="1">
          <mxGeometry x="375" y="170" width="20" height="20" as="geometry" />
        </mxCell>
        <mxCell id="jQ6lX08-I3Otiu9kKLvg-27" value="" style="verticalLabelPosition=bottom;aspect=fixed;html=1;verticalAlign=top;fillColor=strokeColor;align=center;outlineConnect=0;shape=mxgraph.fluid_power.x11820;points=[[0.5,1,0]]" vertex="1" parent="1">
          <mxGeometry x="353.02" y="23.9" width="63.96" height="96.1" as="geometry" />
        </mxCell>
        <mxCell id="jQ6lX08-I3Otiu9kKLvg-32" style="edgeStyle=orthogonalEdgeStyle;rounded=0;orthogonalLoop=1;jettySize=auto;html=1;exitX=0;exitY=0.5;exitDx=0;exitDy=0;exitPerimeter=0;endArrow=none;startFill=0;" edge="1" parent="1" source="jQ6lX08-I3Otiu9kKLvg-28" target="jQ6lX08-I3Otiu9kKLvg-21">
          <mxGeometry relative="1" as="geometry" />
        </mxCell>
        <mxCell id="jQ6lX08-I3Otiu9kKLvg-28" value="" style="verticalLabelPosition=bottom;aspect=fixed;html=1;verticalAlign=top;fillColor=strokeColor;align=center;outlineConnect=0;shape=mxgraph.fluid_power.x11770;points=[[0,0.5,0]]" vertex="1" parent="1">
          <mxGeometry x="645" y="306.02" width="46.82" height="27.96" as="geometry" />
        </mxCell>
        <mxCell id="jQ6lX08-I3Otiu9kKLvg-30" style="edgeStyle=orthogonalEdgeStyle;rounded=0;orthogonalLoop=1;jettySize=auto;html=1;entryX=0.5;entryY=0.667;entryDx=0;entryDy=0;entryPerimeter=0;endArrow=none;startFill=0;" edge="1" parent="1" source="jQ6lX08-I3Otiu9kKLvg-8" target="jQ6lX08-I3Otiu9kKLvg-21">
          <mxGeometry relative="1" as="geometry" />
        </mxCell>
        <mxCell id="jQ6lX08-I3Otiu9kKLvg-35" value="" style="verticalLabelPosition=bottom;aspect=fixed;html=1;verticalAlign=top;fillColor=strokeColor;align=center;outlineConnect=0;shape=mxgraph.fluid_power.x11820;points=[[0.5,1,0]];rotation=90;" vertex="1" parent="1">
          <mxGeometry x="170" y="209.97" width="37.34" height="56.1" as="geometry" />
        </mxCell>
        <mxCell id="jQ6lX08-I3Otiu9kKLvg-36" style="edgeStyle=orthogonalEdgeStyle;rounded=0;orthogonalLoop=1;jettySize=auto;html=1;entryX=0.49;entryY=0.84;entryDx=0;entryDy=0;entryPerimeter=0;endArrow=none;startFill=0;" edge="1" parent="1" source="jQ6lX08-I3Otiu9kKLvg-21" target="jQ6lX08-I3Otiu9kKLvg-22">
          <mxGeometry relative="1" as="geometry" />
        </mxCell>
        <mxCell id="jQ6lX08-I3Otiu9kKLvg-39" value="" style="shape=waypoint;sketch=0;fillStyle=solid;size=6;pointerEvents=1;points=[];fillColor=none;resizable=0;rotatable=0;perimeter=centerPerimeter;snapToPoint=1;" vertex="1" parent="1">
          <mxGeometry x="495" y="310.02" width="20" height="20" as="geometry" />
        </mxCell>
        <mxCell id="jQ6lX08-I3Otiu9kKLvg-40" value="" style="shape=waypoint;sketch=0;fillStyle=solid;size=6;pointerEvents=1;points=[];fillColor=none;resizable=0;rotatable=0;perimeter=centerPerimeter;snapToPoint=1;" vertex="1" parent="1">
          <mxGeometry x="495" y="170" width="20" height="20" as="geometry" />
        </mxCell>
        <mxCell id="jQ6lX08-I3Otiu9kKLvg-52" style="edgeStyle=orthogonalEdgeStyle;rounded=0;orthogonalLoop=1;jettySize=auto;html=1;endArrow=none;startFill=0;" edge="1" parent="1" source="jQ6lX08-I3Otiu9kKLvg-42" target="jQ6lX08-I3Otiu9kKLvg-39">
          <mxGeometry relative="1" as="geometry" />
        </mxCell>
        <mxCell id="jQ6lX08-I3Otiu9kKLvg-42" value="" style="verticalLabelPosition=bottom;aspect=fixed;html=1;verticalAlign=top;fillColor=strokeColor;align=center;outlineConnect=0;shape=mxgraph.fluid_power.x11770;points=[[0,0.5,0]]" vertex="1" parent="1">
          <mxGeometry x="527" y="306.03999999999996" width="46.82" height="27.96" as="geometry" />
        </mxCell>
        <mxCell id="jQ6lX08-I3Otiu9kKLvg-48" style="edgeStyle=orthogonalEdgeStyle;rounded=0;orthogonalLoop=1;jettySize=auto;html=1;entryX=0.892;entryY=0.567;entryDx=0;entryDy=0;entryPerimeter=0;endArrow=none;startFill=0;" edge="1" parent="1" target="jQ6lX08-I3Otiu9kKLvg-13">
          <mxGeometry relative="1" as="geometry">
            <mxPoint x="505" y="490" as="sourcePoint" />
            <Array as="points" />
          </mxGeometry>
        </mxCell>
        <mxCell id="jQ6lX08-I3Otiu9kKLvg-49" value="" style="edgeStyle=orthogonalEdgeStyle;rounded=0;orthogonalLoop=1;jettySize=auto;html=1;entryDx=0;entryDy=0;entryPerimeter=0;endArrow=none;startFill=0;" edge="1" parent="1" source="jQ6lX08-I3Otiu9kKLvg-7">
          <mxGeometry relative="1" as="geometry">
            <mxPoint x="505" y="395" as="sourcePoint" />
            <mxPoint x="505" y="490" as="targetPoint" />
            <Array as="points">
              <mxPoint x="505" y="490" />
            </Array>
          </mxGeometry>
        </mxCell>
        <mxCell id="jQ6lX08-I3Otiu9kKLvg-55" style="edgeStyle=orthogonalEdgeStyle;rounded=0;orthogonalLoop=1;jettySize=auto;html=1;entryX=0;entryY=0.5;entryDx=0;entryDy=0;entryPerimeter=0;endArrow=none;startFill=0;" edge="1" parent="1" source="jQ6lX08-I3Otiu9kKLvg-13" target="jQ6lX08-I3Otiu9kKLvg-3">
          <mxGeometry relative="1" as="geometry" />
        </mxCell>
        <mxCell id="jQ6lX08-I3Otiu9kKLvg-56" value="" style="verticalLabelPosition=bottom;align=center;dashed=0;html=1;verticalAlign=top;shape=mxgraph.pid.fittings.vent;" vertex="1" parent="1">
          <mxGeometry x="266.5" y="300" width="20" height="40" as="geometry" />
        </mxCell>
        <mxCell id="jQ6lX08-I3Otiu9kKLvg-57" value="" style="shape=waypoint;sketch=0;fillStyle=solid;size=6;pointerEvents=1;points=[];fillColor=none;resizable=0;rotatable=0;perimeter=centerPerimeter;snapToPoint=1;" vertex="1" parent="1">
          <mxGeometry x="266.5" y="330" width="20" height="20" as="geometry" />
        </mxCell>
        <mxCell id="jQ6lX08-I3Otiu9kKLvg-58" value="" style="shape=waypoint;sketch=0;fillStyle=solid;size=6;pointerEvents=1;points=[];fillColor=none;resizable=0;rotatable=0;perimeter=centerPerimeter;snapToPoint=1;" vertex="1" parent="1">
          <mxGeometry x="266.5" y="170" width="20" height="20" as="geometry" />
        </mxCell>
        <mxCell id="jQ6lX08-I3Otiu9kKLvg-59" value="" style="verticalLabelPosition=bottom;align=center;dashed=0;html=1;verticalAlign=top;shape=mxgraph.pid.fittings.blind_disc2;rotation=-180;" vertex="1" parent="1">
          <mxGeometry x="271.5" y="180" width="10" height="33.96" as="geometry" />
        </mxCell>
        <mxCell id="jQ6lX08-I3Otiu9kKLvg-60" value="" style="verticalLabelPosition=bottom;align=center;dashed=0;html=1;verticalAlign=top;shape=mxgraph.pid.fittings.blind_disc2;rotation=90;" vertex="1" parent="1">
          <mxGeometry x="670" y="133.01999999999998" width="10" height="33.96" as="geometry" />
        </mxCell>
        <mxCell id="jQ6lX08-I3Otiu9kKLvg-61" value="" style="shape=waypoint;sketch=0;fillStyle=solid;size=6;pointerEvents=1;points=[];fillColor=none;resizable=0;rotatable=0;perimeter=centerPerimeter;snapToPoint=1;" vertex="1" parent="1">
          <mxGeometry x="650" y="140" width="20" height="20" as="geometry" />
        </mxCell>
      </root>
    </mxGraphModel>
  </diagram>
</mxfile>
